<?xml version="1.0" encoding="utf-8"?>
<!-- Generator: Adobe Illustrator 27.1.1, SVG Export Plug-In . SVG Version: 6.00 Build 0)  -->
<svg version="1.1" id="Layer_1" xmlns="http://www.w3.org/2000/svg" xmlns:xlink="http://www.w3.org/1999/xlink" x="0px" y="0px"
	 viewBox="0 0 352.32 352.67" style="enable-background:new 0 0 352.32 352.67;" xml:space="preserve">
<style type="text/css">
	.st0{fill:#FFFFFF;}
	.st1{fill:#FF0000;}
</style>
<g id="logo">
	<path id="outline" class="st0" d="M337.77,236.31c6.9-18.78,10.73-38.71,10.73-59.41c0-24.53-4.98-47.53-14.18-68.61l-14.95,14.57
		c6.52,16.86,9.96,34.88,9.96,54.04c0,19.55-3.83,38.71-10.73,55.96c-1.92,0-3.84-0.38-5.75-0.38c-50.22,0-90.84,40.63-90.84,90.84
		c-12.65,3.83-25.68,6.52-39.48,6.9v-60.56h-19.16v60.18c-6.52-0.38-13.03-1.53-19.16-2.68v-57.5h-19.16v51.75
		c-6.52-2.3-13.03-5.37-19.16-8.43v-43.31H86.71v31.43C48,273.1,22.7,227.87,22.7,176.89c0-79.34,60.56-144.89,137.98-152.55
		c3.07-7.29,7.29-14.18,12.65-19.93C79.04,5.94,3.53,82.6,3.53,176.89c0,95.44,77.04,172.48,172.48,172.48
		c16.87,0,32.96-2.3,47.91-6.9C276.82,327.15,318.99,287.28,337.77,236.31z"/>
	<polygon id="nose" class="st0" points="134.24,219.44 110.09,243.59 158,243.59 	"/>
	<path id="right_eye" class="st0" d="M193.26,218.29c22.61,0,41.39-18.4,41.39-41.4c0-23-18.4-41.4-41.39-41.4
		c-23,0-41.39,18.78-41.39,41.4C151.87,199.51,170.27,218.29,193.26,218.29z"/>
	<path id="left_eye" class="st0" d="M80.57,135.5c-22.61,0-41.4,18.4-41.4,41.4c0,23,18.4,41.4,41.4,41.4c23,0,41.4-18.78,41.4-41.4
		C121.97,154.28,103.57,135.5,80.57,135.5z"/>
	<path id="heart" class="st1" d="M335.85,79.54c17.25-17.25,17.25-45.61,0-62.86c-17.25-17.25-45.61-17.25-62.86,0l-10.73,10.73
		l-11.11-11.12c-13.03-13.03-31.82-16.1-47.91-9.96c-2.68,1.15-5.37,2.3-7.66,3.83c-1.15,0.77-2.3,1.54-3.07,2.3l-0.38,0.38
		c-1.15,0.77-2.3,1.92-3.45,3.07c-1.15,1.15-2.3,2.3-3.07,3.45c-1.15,1.15-1.91,2.3-2.68,3.83c-11.12,17.25-9.2,40.63,5.75,55.58
		l10.73,11.5l62.86,62.86L335.85,79.54z"/>
</g>
</svg>
